# xmcd
#
# Track frame offsets:
#	150
#	13804
#	30490
#	43448
#	59565
#	74858
#	92409
#	105248
#	120026
#	138089
#	151625
#	164577
#	178837
#	190455
#	207322
#	221848
#	232023
#	247361
#
# Disc length: 3507 seconds
#
# Revision: 2
# Processed by: cddbd v1.5.2PL0 Copyright (c) Steve Scherf et al.
# Submitted via: audiograbber 1.83.01
#
DISCID=0a0db112
DTITLE=Various Artist - Promo Only Country Radio 2009 - 10
DYEAR=2009
DGENRE=Country
TTITLE0=Brooks and Dunn (Ft. Billy Gibbons) - Honky Tonk Stomp
TTITLE1=Mica Roberts - Days You Live For
TTITLE2=Steve Azar - Moo La Moo
TTITLE3=Reba McEntire - Consider Me Gone (Album Version)
TTITLE4=Ash Bowers - Stuck
TTITLE5=Lady Antebellum - Need You Now
TTITLE6=Jypsi - Mr. Officer
TTITLE7=Kenny Chesney and Dave Matthews - I'm Alive
TTITLE8=Radney Foster and The Confessions - A Little Revival (Album Version)
TTITLE9=Steel Magnolia - Keep On Lovin' You
TTITLE10=Krista Marie - Tomboy
TTITLE11=Josh Thompson - Beer On The Table
TTITLE12=John Fogerty (Ft. Bruce Springsteen) - When Will I Be Loved (Album Ver
TTITLE12=sion)
TTITLE13=Miranda Lambert - White Liar
TTITLE14=Hannah McNeil - What Am I Getting Up For
TTITLE15=Allen Thompson - Forgive Me (Album Version)
TTITLE16=Elliot Brood - Without Again (Album Version)
TTITLE17=Amelia Curran - Scattered and Small (Album Version)
EXTD=
EXTT0=
EXTT1=
EXTT2=
EXTT3=
EXTT4=
EXTT5=
EXTT6=
EXTT7=
EXTT8=
EXTT9=
EXTT10=
EXTT11=
EXTT12=
EXTT13=
EXTT14=
EXTT15=
EXTT16=
EXTT17=
PLAYORDER=
